<?xml version="1.0" encoding="UTF-8"?>
<!DOCTYPE svg PUBLIC "-//W3C//DTD SVG 1.1//EN" "http://www.w3.org/Graphics/SVG/1.1/DTD/svg11.dtd">
<svg xmlns="http://www.w3.org/2000/svg" version="1.1" width="500px" height="500px" style="shape-rendering:geometricPrecision; text-rendering:geometricPrecision; image-rendering:optimizeQuality; fill-rule:evenodd; clip-rule:evenodd" xmlns:xlink="http://www.w3.org/1999/xlink">
<g><path style="opacity:0.895" fill="#7dd956" d="M 222.5,22.5 C 229.177,22.5135 231.177,25.3468 228.5,31C 235.517,33.7819 237.183,38.4486 233.5,45C 230.97,46.4217 228.303,46.755 225.5,46C 223.983,44.3149 222.316,42.8149 220.5,41.5C 219.289,43.4219 217.956,45.2552 216.5,47C 209.103,47.6033 205.603,44.1033 206,36.5C 209.217,29.5393 213.884,28.206 220,32.5C 220.833,31.6667 221.667,30.8333 222.5,30C 221.221,27.5024 221.221,25.0024 222.5,22.5 Z"/></g>
<g><path style="opacity:0.517" fill="#7dd956" d="M 276.5,33.5 C 277.5,33.5 278.5,33.5 279.5,33.5C 279.5,34.5 279.5,35.5 279.5,36.5C 276.433,36.8795 275.433,35.8795 276.5,33.5 Z"/></g>
<g><path style="opacity:0.598" fill="#7dd956" d="M 170.5,48.5 C 171.5,48.5 172.5,48.5 173.5,48.5C 173.5,49.5 173.5,50.5 173.5,51.5C 172.5,51.5 171.5,51.5 170.5,51.5C 170.5,50.5 170.5,49.5 170.5,48.5 Z"/></g>
<g><path style="opacity:0.974" fill="#7dd956" d="M 299.5,68.5 C 309.412,69.5708 315.912,74.9041 319,84.5C 324.033,96.65 323.033,108.317 316,119.5C 311.67,124.181 307.837,129.181 304.5,134.5C 304.833,135.167 305.167,135.833 305.5,136.5C 316.041,130.772 321.708,133.939 322.5,146C 321.794,148.62 320.794,151.12 319.5,153.5C 319.808,154.308 320.308,154.975 321,155.5C 324.475,153.182 328.308,152.182 332.5,152.5C 331.97,157.887 331.97,163.22 332.5,168.5C 343.087,156.678 355.087,154.845 368.5,163C 375.083,168.836 378.083,176.17 377.5,185C 376.325,202.165 368.492,215.332 354,224.5C 353.517,225.448 353.351,226.448 353.5,227.5C 365.445,227.38 369.612,233.046 366,244.5C 362.826,248.683 358.826,251.683 354,253.5C 338.095,225.926 315.595,205.759 286.5,193C 277.692,189.854 268.692,188.688 259.5,189.5C 256.211,183.876 251.878,183.042 246.5,187C 245.257,188.154 244.257,189.488 243.5,191C 213.927,193.038 189.094,204.871 169,226.5C 162.444,234.942 157.444,244.276 154,254.5C 149.861,255.583 145.694,255.416 141.5,254C 136.758,251.88 132.258,249.38 128,246.5C 125.159,243.374 124.993,240.207 127.5,237C 130.184,236.222 132.517,234.889 134.5,233C 131.131,230.316 127.464,228.149 123.5,226.5C 119.732,222.751 119.565,218.751 123,214.5C 125.251,212.623 127.751,211.123 130.5,210C 136.742,208.63 143.075,208.13 149.5,208.5C 149.67,207.178 149.337,206.011 148.5,205C 141.154,201.323 134.654,196.489 129,190.5C 122.344,181.227 123.177,172.727 131.5,165C 152.199,152.306 171.532,153.973 189.5,170C 193.141,172.803 197.141,174.97 201.5,176.5C 202.614,175.277 202.781,173.944 202,172.5C 198.976,168.801 196.809,164.634 195.5,160C 197.552,150.8 203.218,147.467 212.5,150C 221.627,155.321 222.793,153.821 216,145.5C 214.55,136.934 218.05,131.434 226.5,129C 232.5,127 238.5,127 244.5,129C 246.527,130.879 248.86,132.046 251.5,132.5C 249.322,126.463 246.822,120.463 244,114.5C 240.222,103.501 241.556,93.1674 248,83.5C 255.435,76.9619 262.769,76.9619 270,83.5C 271.271,86.4326 272.938,89.0993 275,91.5C 281.447,81.8823 289.614,74.2156 299.5,68.5 Z M 295.5,206.5 C 299.996,208.326 301.329,211.493 299.5,216C 293.019,217.31 290.519,214.81 292,208.5C 293.302,207.915 294.469,207.249 295.5,206.5 Z"/></g>
<g><path style="opacity:0.944" fill="#7dd956" d="M 176.5,76.5 C 179.187,76.3359 181.854,76.5026 184.5,77C 189.34,79.449 194.34,81.449 199.5,83C 210.466,98.6966 206.466,105.363 187.5,103C 186.584,102.626 185.75,102.126 185,101.5C 184.242,105.329 185.242,108.662 188,111.5C 191.046,120.412 187.879,125.078 178.5,125.5C 169.85,125.364 164.517,121.198 162.5,113C 162.93,110.283 164.263,108.116 166.5,106.5C 166.291,105.914 165.957,105.414 165.5,105C 150.999,105.155 147.499,98.9888 155,86.5C 157.016,83.4099 159.849,81.7433 163.5,81.5C 166.816,83.0048 170.149,84.1714 173.5,85C 174.028,81.9509 175.028,79.1176 176.5,76.5 Z"/></g>
<g><path style="opacity:0.328" fill="#7dd956" d="M 344.5,126.5 C 347.957,126.667 348.29,127.667 345.5,129.5C 344.614,128.675 344.281,127.675 344.5,126.5 Z"/></g>
<g><path style="opacity:0.983" fill="#7ed957" d="M 323.5,328.5 C 321.774,322.711 318.774,317.711 314.5,313.5C 297.591,315.952 282.258,322.286 268.5,332.5C 260.517,331.481 252.517,331.314 244.5,332C 231.634,322.93 217.467,316.764 202,313.5C 200.105,313.615 198.438,314.282 197,315.5C 194.35,319.133 192.517,323.133 191.5,327.5C 191.672,328.492 191.338,329.158 190.5,329.5C 172.815,328.663 156.982,322.996 143,312.5C 142.251,311.365 142.417,310.365 143.5,309.5C 145.333,308.948 147,308.115 148.5,307C 145.555,304.315 144.555,301.148 145.5,297.5C 147.341,296.77 149.175,296.103 151,295.5C 153.796,233.706 185.962,200.539 247.5,196C 248.406,194.301 248.739,192.467 248.5,190.5C 250.06,190.481 251.56,190.148 253,189.5C 254.78,192.086 256.78,194.419 259,196.5C 273.505,193.501 287.005,196.001 299.5,204C 317.25,215.749 332.416,230.249 345,247.5C 353.994,263.299 358.494,280.299 358.5,298.5C 363.117,299.924 364.95,302.924 364,307.5C 361.923,309.076 360.423,311.076 359.5,313.5C 362.68,320.225 360.347,324.058 352.5,325C 342.922,326.916 333.255,328.083 323.5,328.5 Z M 295.5,206.5 C 294.469,207.249 293.302,207.915 292,208.5C 290.519,214.81 293.019,217.31 299.5,216C 301.329,211.493 299.996,208.326 295.5,206.5 Z M 308.5,217.5 C 317.962,222.002 326.128,228.335 333,236.5C 339.981,247.295 345.481,258.795 349.5,271C 345.995,274.192 342.828,273.692 340,269.5C 333.198,251.696 322.198,237.029 307,225.5C 304.899,222.312 305.399,219.645 308.5,217.5 Z M 159.5,293.5 C 165.279,292.708 170.446,294.041 175,297.5C 175.667,298.833 175.667,300.167 175,301.5C 168.079,305.975 162.246,304.808 157.5,298C 158.267,296.53 158.933,295.03 159.5,293.5 Z M 314.5,313.5 C 313.469,312.751 312.302,312.085 311,311.5C 309.779,302.218 313.946,297.884 323.5,298.5C 326.879,298.939 330.045,299.939 333,301.5C 335.122,305.773 333.955,308.94 329.5,311C 324.705,313.033 319.705,313.866 314.5,313.5 Z"/></g>
<g><path style="opacity:0.135" fill="#7dd956" d="M 294.5,210.5 C 296.337,210.639 296.67,211.306 295.5,212.5C 294.702,212.043 294.369,211.376 294.5,210.5 Z"/></g>
<g><path style="opacity:0.614" fill="#7dd956" d="M 310.5,223.5 C 311.251,222.427 312.251,222.26 313.5,223C 318.333,227.167 323.167,231.333 328,235.5C 335.261,245.52 341.095,256.354 345.5,268C 344.551,268.617 343.718,268.451 343,267.5C 335.792,250.053 324.958,235.386 310.5,223.5 Z"/></g>
<g><path style="opacity:0.532" fill="#7dd956" d="M 163.5,296.5 C 165.924,297.03 168.257,297.864 170.5,299C 167.314,301.035 164.314,300.701 161.5,298C 162.416,297.722 163.082,297.222 163.5,296.5 Z"/></g>
<g><path style="opacity:0.752" fill="#7dd956" d="M 319.5,302.5 C 322.881,302.46 326.214,302.793 329.5,303.5C 329.5,304.833 329.5,306.167 329.5,307.5C 324.929,308.977 320.262,309.477 315.5,309C 314.446,307.612 314.28,306.112 315,304.5C 316.622,303.901 318.122,303.234 319.5,302.5 Z"/></g>
<g><path style="opacity:1" fill="#ff3333" d="M 244.5,336.5 C 243.842,337.398 243.176,338.398 242.5,339.5C 235.701,336.398 228.701,334.232 221.5,333C 228.552,336.195 235.552,339.362 242.5,342.5C 242.5,343.833 242.5,345.167 242.5,346.5C 240.167,346.5 237.833,346.5 235.5,346.5C 232.482,346.335 229.482,346.502 226.5,347C 231.972,348.592 237.639,349.426 243.5,349.5C 243.945,352.365 243.278,354.865 241.5,357C 236.135,360.09 230.468,362.423 224.5,364C 231.726,364.067 238.226,361.9 244,357.5C 246.033,360.097 245.533,362.263 242.5,364C 229.816,373.004 215.816,378.67 200.5,381C 197.837,379.199 196.003,376.699 195,373.5C 190.961,358.274 190.461,342.94 193.5,327.5C 194.17,324.327 195.336,321.327 197,318.5C 198.182,316.643 199.849,315.643 202,315.5C 216.33,318.275 229.497,323.775 241.5,332C 243.141,333.129 244.141,334.629 244.5,336.5 Z"/></g>
<g><path style="opacity:1" fill="#ff3433" d="M 269.5,362.5 C 268.537,360.702 269.204,359.368 271.5,358.5C 276.878,362.46 282.878,364.293 289.5,364C 283.353,362.563 277.687,360.063 272.5,356.5C 271.526,354.257 271.192,351.924 271.5,349.5C 294.003,347.226 294.003,346.226 271.5,346.5C 271.238,345.022 271.571,343.689 272.5,342.5C 279.045,339.06 285.712,335.894 292.5,333C 285.786,333.79 279.286,335.623 273,338.5C 271.69,337.87 270.856,336.87 270.5,335.5C 270.414,334.504 270.748,333.671 271.5,333C 284.337,323.391 298.671,317.724 314.5,316C 317.844,319.521 320.011,323.688 321,328.5C 325.415,346.12 323.749,363.12 316,379.5C 313.757,381.282 311.257,381.782 308.5,381C 294.412,376.954 281.412,370.787 269.5,362.5 Z"/></g>
<g><path style="opacity:0.713" fill="#ffeae9" d="M 191.5,327.5 C 192.167,327.5 192.833,327.5 193.5,327.5C 190.461,342.94 190.961,358.274 195,373.5C 196.003,376.699 197.837,379.199 200.5,381C 215.816,378.67 229.816,373.004 242.5,364C 245.533,362.263 246.033,360.097 244,357.5C 238.226,361.9 231.726,364.067 224.5,364C 230.468,362.423 236.135,360.09 241.5,357C 243.278,354.865 243.945,352.365 243.5,349.5C 237.639,349.426 231.972,348.592 226.5,347C 229.482,346.502 232.482,346.335 235.5,346.5C 237.948,347.473 240.615,347.806 243.5,347.5C 243.784,345.585 243.451,343.919 242.5,342.5C 235.552,339.362 228.552,336.195 221.5,333C 228.701,334.232 235.701,336.398 242.5,339.5C 243.176,338.398 243.842,337.398 244.5,336.5C 244.263,337.791 244.596,338.791 245.5,339.5C 241.553,357.721 248.553,364.554 266.5,360C 267.893,358.829 268.727,357.329 269,355.5C 269.5,349.175 269.666,342.842 269.5,336.5C 269.5,335.833 269.833,335.5 270.5,335.5C 270.856,336.87 271.69,337.87 273,338.5C 279.286,335.623 285.786,333.79 292.5,333C 285.712,335.894 279.045,339.06 272.5,342.5C 271.571,343.689 271.238,345.022 271.5,346.5C 294.003,346.226 294.003,347.226 271.5,349.5C 271.192,351.924 271.526,354.257 272.5,356.5C 277.687,360.063 283.353,362.563 289.5,364C 282.878,364.293 276.878,362.46 271.5,358.5C 269.204,359.368 268.537,360.702 269.5,362.5C 268.833,362.5 268.167,362.5 267.5,362.5C 261.107,362.793 254.773,362.46 248.5,361.5C 244.835,363.841 241.501,366.507 238.5,369.5C 237.833,369.5 237.5,369.833 237.5,370.5C 226.726,376.632 215.226,380.965 203,383.5C 197.918,383.09 194.584,380.423 193,375.5C 188.199,360.375 187.365,345.042 190.5,329.5C 191.338,329.158 191.672,328.492 191.5,327.5 Z"/></g>
<g><path style="opacity:0.935" fill="#fbf5f1" d="M 314.5,313.5 C 318.774,317.711 321.774,322.711 323.5,328.5C 326.755,344.395 325.922,360.061 321,375.5C 317.576,383.634 311.743,385.801 303.5,382C 294.217,378.688 285.217,374.855 276.5,370.5C 276.5,369.833 276.167,369.5 275.5,369.5C 272.833,367.167 270.167,364.833 267.5,362.5C 268.167,362.5 268.833,362.5 269.5,362.5C 281.412,370.787 294.412,376.954 308.5,381C 311.257,381.782 313.757,381.282 316,379.5C 323.749,363.12 325.415,346.12 321,328.5C 320.011,323.688 317.844,319.521 314.5,316C 298.671,317.724 284.337,323.391 271.5,333C 270.748,333.671 270.414,334.504 270.5,335.5C 269.833,335.5 269.5,335.833 269.5,336.5C 268.373,335.878 267.373,335.045 266.5,334C 261.167,333.333 255.833,333.333 250.5,334C 247.228,334.437 245.561,336.27 245.5,339.5C 244.596,338.791 244.263,337.791 244.5,336.5C 244.141,334.629 243.141,333.129 241.5,332C 229.497,323.775 216.33,318.275 202,315.5C 199.849,315.643 198.182,316.643 197,318.5C 195.336,321.327 194.17,324.327 193.5,327.5C 192.833,327.5 192.167,327.5 191.5,327.5C 192.517,323.133 194.35,319.133 197,315.5C 198.438,314.282 200.105,313.615 202,313.5C 217.467,316.764 231.634,322.93 244.5,332C 252.517,331.314 260.517,331.481 268.5,332.5C 282.258,322.286 297.591,315.952 314.5,313.5 Z"/></g>
<g><path style="opacity:1" fill="#ff3433" d="M 269.5,336.5 C 269.666,342.842 269.5,349.175 269,355.5C 268.727,357.329 267.893,358.829 266.5,360C 248.553,364.554 241.553,357.721 245.5,339.5C 245.561,336.27 247.228,334.437 250.5,334C 255.833,333.333 261.167,333.333 266.5,334C 267.373,335.045 268.373,335.878 269.5,336.5 Z"/></g>
<g><path style="opacity:1" fill="#ff9392" d="M 242.5,342.5 C 243.451,343.919 243.784,345.585 243.5,347.5C 240.615,347.806 237.948,347.473 235.5,346.5C 237.833,346.5 240.167,346.5 242.5,346.5C 242.5,345.167 242.5,343.833 242.5,342.5 Z"/></g>
<g><path style="opacity:0.973" fill="#7ed957" d="M 267.5,362.5 C 270.167,364.833 272.833,367.167 275.5,369.5C 276.167,369.5 276.5,369.833 276.5,370.5C 283.42,387.76 289.253,405.427 294,423.5C 297.157,434.982 298.157,446.648 297,458.5C 295.594,463.573 292.428,467.073 287.5,469C 271.101,478.955 254.768,478.955 238.5,469C 233.918,463.667 231.085,457.5 230,450.5C 226.769,423.27 229.269,396.603 237.5,370.5C 238.167,370.5 238.5,370.167 238.5,369.5C 241.501,366.507 244.835,363.841 248.5,361.5C 254.773,362.46 261.107,362.793 267.5,362.5 Z M 270.5,377.5 C 272.714,377.291 274.381,378.124 275.5,380C 279.625,389.041 282.958,398.374 285.5,408C 285.081,410.086 283.914,411.586 282,412.5C 279.132,411.639 276.798,409.972 275,407.5C 271.411,399.415 269.078,391.081 268,382.5C 268.366,380.548 269.199,378.882 270.5,377.5 Z"/></g>
<g><path style="opacity:0.63" fill="#7dd956" d="M 271.5,382.5 C 276.743,390.241 279.743,398.575 280.5,407.5C 279.522,407.023 278.689,406.357 278,405.5C 275.111,398.004 272.944,390.337 271.5,382.5 Z"/></g>
</svg>
